<svg xmlns="http://www.w3.org/2000/svg" xmlns:xlink="http://www.w3.org/1999/xlink" xmlns:inkscape="http://www.inkscape.org/namespaces/inkscape" version="1.1" width="2000" height="2000" viewBox="0 0 2000 2000">
<defs>
<clipPath id="clip_1">
<path transform="matrix(1,0,0,-1,0,2000)" d="M0 2000H2000V0H0Z"/>
</clipPath>
</defs>
<g inkscape:groupmode="layer" inkscape:label="Layer 1">
<g clip-path="url(#clip_1)">
<path transform="matrix(1,0,0,-1,339.4134,1665.1743)" d="M0 0C6.491 0 11.57 1.843 15.256 5.51 18.943 9.197 20.786 13.531 20.786 18.531 20.786 23.629 18.962 28.002 15.354 31.63 11.727 35.238 6.628 37.042 0 37.042H-60.26L-55.946 72.791H0C12.099 72.791 22.433 70.241 30.983 65.123 39.533 60.005 45.965 53.299 50.259 45.004 54.573 36.709 56.711 27.885 56.711 18.531 56.711 9.158 54.573 .333 50.259-7.961 45.965-16.256 39.533-22.963 30.983-28.081 22.433-33.199 12.099-35.748 0-35.748H-84.027L-79.732 0Z" fill="#383838"/>
<path transform="matrix(1,0,0,-1,540.0582,1626.0729)" d="M0 0H-65.319C-72.32 0-77.811-2.118-81.791-6.353-85.792-10.589-87.792-15.531-87.792-21.139-87.792-26.139-86.204-30.375-83.007-33.866-79.83-37.356-75.301-39.101-69.437-39.101H-4.883ZM56.515-39.101V-74.85H26.375C24.767-89.831 21.57-102.362 16.845-112.48H-29.199C-19.472-100.617-12.805-88.086-9.177-74.85H-74.124C-85.36-74.85-94.812-72.634-102.479-68.202-110.147-63.79-115.853-57.887-119.599-50.514-123.344-43.161-125.227-35.062-125.227-26.198-125.227-15.707-122.638-5.51-117.442 4.412-112.265 14.335-104.793 22.414-94.989 28.65-85.203 34.885-73.752 38.003-60.652 38.003H40.611L30.865-39.101Z" fill="#383838"/>
<path transform="matrix(1,0,0,-1,721.9759,1755.5744)" d="M0 0H-37.238L-32.199 37.239H5.059ZM149.17 90.4V54.652H-129.148V90.4H69.614C76.105 90.4 81.184 92.243 84.87 95.91 88.557 99.597 90.4 103.931 90.4 108.931 90.4 114.029 88.596 118.402 84.968 122.03 81.34 125.638 76.242 127.442 69.614 127.442H-95.087L-90.773 163.191H69.614C81.713 163.191 92.047 160.641 100.597 155.523 109.147 150.405 115.579 143.699 119.873 135.404 124.187 127.109 126.325 118.285 126.325 108.931 126.325 102.44 125.325 96.263 123.344 90.4Z" fill="#383838"/>
<path transform="matrix(1,0,0,-1,954.0549,1514.8869)" d="M0 0-16.099-130.835C-18.217-147.425-24.12-160.779-33.787-170.878-43.455-180.996-56.711-186.036-73.555-186.036H-86.655V-150.288H-73.555C-67.32-150.288-62.398-148.699-58.77-145.522-55.162-142.346-53.024-137.639-52.416-131.384L-36.121 0Z" fill="#383838"/>
<path transform="matrix(1,0,0,-1,1008.7067,1700.9225)" d="M0 0H-35.944L-13.099 186.036H23.022Z" fill="#383838"/>
<path transform="matrix(1,0,0,-1,1223.7449,1575.5391)" d="M0 0H-37.435L-32.179 37.435H5.059ZM-49.789 0H-87.223L-81.968 37.435H-44.729ZM-11.04-52.201H-78.595C-85.223-52.201-90.4-54.24-94.145-58.299-97.891-62.339-99.754-67.065-99.754-72.418-99.754-77.164-98.224-81.223-95.165-84.596-92.106-87.949-87.831-89.635-82.34-89.635H-15.727ZM45.671-89.635V-125.383H-87.4C-97.754-125.383-106.578-123.148-113.892-118.657-121.187-114.167-126.678-108.205-130.345-100.773-134.031-93.361-135.875-85.282-135.875-76.536-135.875-66.437-133.482-56.77-128.678-47.534-123.874-38.297-116.794-30.787-107.421-24.983-98.067-19.178-86.91-16.276-73.928-16.276H29.571L20.217-89.635Z" fill="#383838"/>
<path transform="matrix(1,0,0,-1,1488.0227,1587.5009)" d="M0 0-7.118-58.221C-9.236-74.81-15.139-88.165-24.806-98.263-34.474-108.382-47.73-113.422-64.574-113.422H-134.561-138.306-222.353V-77.673H-192.585L-183.036 0H-146.915L-156.661-77.673H-138.306C-132.07-77.673-127.148-76.085-123.521-72.908-119.912-69.732-117.795-65.025-117.167-58.77L-109.872 0H-73.732L-80.85-58.221C-81.85-65.457-83.419-71.947-85.537-77.673H-64.574C-58.338-77.673-53.397-76.085-49.789-72.908-46.161-69.732-44.043-65.025-43.416-58.77L-36.121 0Z" fill="#383838"/>
<path transform="matrix(1,0,0,-1,1572.4221,1665.1743)" d="M0 0V-35.748H-65.692L-42.866 150.288H-6.746L-25.257 0Z" fill="#383838"/>
<path transform="matrix(1,0,0,-1,1723.0823,1626.9945)" d="M0 0H-67.555C-74.163 0-79.34-2.039-83.086-6.079-86.831-10.138-88.714-14.864-88.714-20.217-88.714-25.081-87.184-29.199-84.125-32.571-81.066-35.944-76.791-37.631-71.3-37.631H-4.667ZM26.59-73.928H-32.924V-74.124H-154.406V-38.376H-123.148C-124.266-33.885-124.834-29.336-124.834-24.708-124.834-14.609-122.422-4.902-117.618 4.393-112.814 13.687-105.735 21.276-96.381 27.14-87.027 33.003-75.85 35.925-62.888 35.925H40.631Z" fill="#383838"/>
<path transform="matrix(1,0,0,-1,254.6805,1739.8474)" d="M0 0H42.886L80.144-115.206 140.444 0H183.839L165.446-174.035H122.305L129.913-96.087 93.636-174.035H56.122L33.336-96.577 24.747-174.035H-18.394Z" fill="#383838"/>
<path transform="matrix(1,0,0,-1,508.9379,1878.8399)" d="M0 0C13.491 0 31.14 9.315 31.14 32.356 31.14 51.475 17.413 57.358 6.628 57.358-6.863 57.358-24.512 48.043-24.512 25.257-24.512 5.883-10.785 0 0 0M-66.672 21.335C-66.672 61.535-38.239 94.871-.726 94.871 22.061 94.871 32.356 82.615 33.826 80.399H35.297L36.768 92.42H79.183L65.947-35.042H23.531L25.002-23.041H23.296C22.061-25.237 7.354-37.493-13.236-37.493-40.2-37.493-66.672-17.158-66.672 21.335" fill="#383838"/>
<path transform="matrix(1,0,0,-1,592.8471,1879.5654)" d="M0 0 33.826 9.55C35.532 5.138 38.964-3.922 50.985-3.922 56.377-3.922 61.28-1.726 61.28 4.157 61.28 8.079 59.319 10.53 52.691 12.491L36.023 18.864C17.158 25.492 9.06 38.729 9.06 53.181 9.06 78.183 33.336 95.597 60.299 95.597 84.811 95.597 103.676 81.125 106.127 60.535L72.791 51.475C69.359 61.77 62.75 62.751 59.064 62.751 52.946 62.751 50.004 60.044 50.004 55.887 50.004 53.181 50.73 50.73 56.613 48.769L75.732 41.415C86.282 37.984 102.95 28.669 102.95 6.118 102.95-20.845 79.909-36.768 50.495-36.768 23.767-36.768 2.451-24.512 0 0" fill="#383838"/>
<path transform="matrix(1,0,0,-1,774.0197,1878.8399)" d="M0 0C13.491 0 31.14 9.315 31.14 32.356 31.14 51.475 17.413 57.358 6.628 57.358-6.863 57.358-24.512 48.043-24.512 25.257-24.512 5.883-10.785 0 0 0M-66.672 21.335C-66.672 61.535-38.239 94.871-.726 94.871 22.061 94.871 32.356 82.615 33.826 80.399H35.297L36.768 92.42H79.183L65.947-35.042H23.531L25.002-23.041H23.296C22.061-25.237 7.354-37.493-13.236-37.493-40.2-37.493-66.672-17.158-66.672 21.335" fill="#383838"/>
<path transform="matrix(1,0,0,-1,879.2444,1871.2315)" d="M0 0 5.393 51.475H-13.982L-10.55 84.811H8.824L12.256 117.402H54.652L51.22 84.811H78.183L74.752 51.475H47.788L43.141 6.373C42.396 .49 45.102-6.863 57.103-6.863 60.044-6.863 64.457-6.373 69.359-4.902L65.692-37.023C60.79-42.415 48.769-44.121 39.219-44.121 13.962-44.121-3.432-31.866 0 0" fill="#383838"/>
<path transform="matrix(1,0,0,-1,1122.6969,1849.6609)" d="M0 0-13.236 56.868-38.729 0ZM61.535-64.221H14.707L9.079-39.474H-56.377L-67.398-64.221H-113.735L-30.885 109.813H15.197Z" fill="#383838"/>
<path transform="matrix(1,0,0,-1,1215.4304,1739.8474)" d="M0 0H42.415L24.277-174.035H-18.139Z" fill="#383838"/>
<path transform="matrix(1,0,0,-1,1313.0271,1887.8995)" d="M0 0 30.885 27.944C34.572 22.296 42.651 13.236 55.652 13.236 59.084 13.236 77.713 12.001 80.654 41.415L91.675 148.052H134.816L122.815 35.297C117.657-13.491 84.811-28.434 55.397-28.434 29.669-28.434 9.315-16.668 0 0" fill="#383838"/>
<path transform="matrix(1,0,0,-1,1577.3245,1913.8821)" d="M0 0H-42.396L-40.925 14.707C-49.024 4.647-61.515-2.451-78.438-2.451-103.676-2.451-124.521 13.472-120.599 52.456L-112.5 127.462H-70.339L-77.203 59.809C-78.673 46.573-73.536 35.042-58.574 35.042-42.886 35.042-37.984 46.573-36.278 59.809L-29.159 127.462H13.236Z" fill="#383838"/>
<path transform="matrix(1,0,0,-1,1665.8812,1878.8399)" d="M0 0C13.472 0 31.12 9.315 31.12 32.356 31.12 51.475 17.394 57.358 6.608 57.358-6.863 57.358-24.512 48.043-24.512 25.257-24.512 5.883-10.785 0 0 0M-66.672 21.335C-66.672 61.535-38.239 94.871-.745 94.871 22.061 94.871 32.356 82.615 33.826 80.399H35.297L41.67 138.992H84.066L65.927-35.042H23.531L25.002-23.041H23.276C22.061-25.237 7.354-37.493-13.236-37.493-40.2-37.493-66.672-17.158-66.672 21.335" fill="#383838"/>
<path transform="matrix(1,0,0,-1,951.4547,940.44778)" d="M0 0C-1.422-1.32-2.583-2.333-3.672-3.419-39.37-38.991-75.106-74.525-110.719-110.183-119.148-118.622-127.696-126.958-135.533-135.981-155.413-158.87-171.843-183.817-180.68-213.107-190.147-244.486-189.546-275.471-175.028-305.353-159.069-338.201-132.708-359.683-99.125-372.696-66.633-385.286-33.181-386.612 .547-379.096 38.205-370.705 70.005-352.228 93.632-321.228 116.55-291.159 125.394-257.204 120.123-219.648 117.002-197.412 108.645-177.181 96.999-158.167 72.21-117.697 47.431-77.219 22.632-36.754 15.151-24.547 7.62-12.371 0 0M306.355 856.012C328.239 844.736 347.765 830.798 365.349 814.216 401.25 780.363 424.751 739.5 434.74 691.038 439.719 666.882 441.061 642.492 439.826 617.886 438.872 598.882 435.988 580.111 433.531 561.289 430.303 536.555 426.857 511.85 423.477 487.137 420.246 463.519 416.941 439.911 413.741 416.289 410.303 390.916 406.887 365.54 403.582 340.15 401.159 321.542 399.041 302.895 396.594 284.291 390.561 238.427 387.675 192.461 389.949 146.16 391.021 124.322 391.498 102.447 393.059 80.629 394.462 61.021 396.412 41.458 398.835 21.952 402.263-5.648 406.354-33.156 411.579-60.477 427.386-143.121 447.105-224.702 477.814-303.287 505.587-374.357 545.28-438.121 595.493-495.436 603.208-504.243 611.179-512.827 618.982-521.559 619.784-522.457 621.225-523.048 620.861-525.47 615.122-525.2 609.271-525.141 603.462-524.618 561.423-520.832 526.615-501.573 495.746-474.002 468.909-450.032 446.508-422.17 424.77-393.657 380.489-335.576 351.346-270.341 332.255-200.255 320.413-156.782 311.009-112.78 304.507-68.203 298.927-29.944 295.491 8.544 293.32 47.156 290.602 95.514 290.14 143.897 291.55 192.286 292.135 212.375 292.053 232.489 293.519 252.561 295.243 276.176 298.445 299.518 304.857 322.355 305.086 323.174 305.269 324.006 305.481 324.864 304.059 325.244 303.938 324.094 303.614 323.576 280.328 286.295 251.929 253.068 222.065 221.036 184.371 180.606 144.09 142.751 104.901 103.809 98.003 96.955 91.066 90.14 84.133 83.321 80.417 79.666 80.356 79.653 82.831 75.085 97.229 48.507 111.7 21.968 126.055-4.633 148.267-45.796 170.484-86.957 192.549-128.199 208.353-157.741 217.7-189.283 221.038-222.617 225.457-266.748 220.152-309.507 201.841-350.115 176.257-406.853 132.956-444.143 74.341-464.01 42.443-474.82 9.466-478.878-24.1-478.811-59.399-478.74-94.192-474.952-127.93-464.051-174.449-449.023-213.39-423.257-241.619-382.682-259.701-356.693-270.72-327.837-275.363-296.574-283.418-242.344-272.904-191.188-249.335-142.283-233.264-108.939-211.794-79.372-185.824-53.104-142.624-9.409-99.226 34.091-55.91 77.672-55.287 78.299-54.658 78.921-54.034 79.547-49.889 83.711-50.336 82.957-53.183 87.789-73.121 121.638-93.09 155.469-113.035 189.314-166.371 279.824-219.699 370.339-273.035 460.849-274.378 463.127-275.783 465.368-277.399 468.019-285.652 463.496-292.657 457.581-299.102 450.994-315.061 434.682-323.848 414.69-328.46 392.676-332.924 371.367-333.86 349.787-333.026 328.08-332.229 307.313-330.421 286.649-327.352 266.093-327.083 264.291-327.316 262.415-328.158 260.3-331.945 268.403-335.801 276.475-339.508 284.615-353.791 315.974-366.304 347.971-374.205 381.616-379.585 404.521-382.537 427.712-381.361 451.248-379.847 481.554-371.669 509.928-355.182 535.619-315.59 597.316-232.733 592.818-194.292 549.455-181.813 535.379-171.526 519.615-161.205 503.929-130.25 456.883-101.838 408.292-73.829 359.467-38.253 297.453-3.616 234.916 29.989 171.81 30.813 170.263 31.742 168.771 32.941 166.703 37.002 170.88 40.783 174.851 44.65 178.735 73.501 207.708 102.806 236.225 131.82 265.029 191.561 324.337 246.22 387.924 290.313 459.992 310.175 492.455 327.195 526.312 337.816 563.048 348.958 601.584 352.991 640.93 351.008 680.975 348.022 741.28 333.011 798.507 307.508 853.103 307.067 854.046 306.737 855.042 306.355 856.012" fill="#f16723"/>
<path transform="matrix(1,0,0,-1,630.5569,703.45767)" d="M0 0C2.523-5.014 5.132-9.987 7.556-15.049 19.88-40.785 29.893-67.339 35.529-95.399 42.57-130.453 42.386-165.116 29.598-199.047 17.467-231.235-3.755-256.407-30.783-277.043-58.979-298.572-90.69-313.238-124.144-324.417-147.195-332.12-170.79-337.621-194.765-341.526-195.622-341.665-196.521-341.544-197.756-341.544-197.168-339.012-194.9-338.382-193.344-337.194-137.319-294.389-89.813-243.823-53.426-183.209-31.233-146.237-15.128-106.823-6.91-64.348-3.125-44.785-1.363-25.03-1.162-5.122-1.145-3.489-1.159-1.856-1.159-.223-.773-.149-.386-.074 0 0" fill="#f16723"/>
<path transform="matrix(1,0,0,-1,669.9736,84.04883)" d="M0 0C-14.759-10.061-27.724-20.684-39.245-32.955-47.705-41.965-56.391-50.802-63.189-61.236-66.574-66.432-69.517-71.855-71.943-77.55-72.979-79.983-73.837-82.509-73.931-85.207-74.033-88.106-72.871-89.906-69.734-89.852-67.305-89.809-64.874-89.742-62.45-89.585-54.931-89.098-48.059-90.978-41.619-94.858-20.342-107.681-8.885-126.116-10.202-151.299-11.222-170.797-18.157-188.281-30.44-203.539-33.633-207.505-37.224-211.121-41.239-214.261-58.749-227.957-78.476-231.283-99.396-224.952-128.389-216.179-148.859-198.136-156.277-167.784-161.512-146.369-157.125-126.18-146.788-107.066-136.972-88.916-123.326-73.943-107.747-60.673-77.708-35.085-43.774-16.015-7.318-1.243-5.692-.584-3.982-.122-2.288 .355-1.913 .461-1.445 .24 0 0" fill="#f16723"/>
</g>
</g>
</svg>
