<svg xmlns="http://www.w3.org/2000/svg" xmlns:xlink="http://www.w3.org/1999/xlink" xmlns:inkscape="http://www.inkscape.org/namespaces/inkscape" version="1.1" width="2000" height="2000" viewBox="0 0 2000 2000">
<defs>
<clipPath id="clip_1">
<path transform="matrix(1,0,0,-1,0,2000)" d="M0 2000H2000V0H0Z"/>
</clipPath>
</defs>
<g inkscape:groupmode="layer" inkscape:label="Layer 1">
<g clip-path="url(#clip_1)">
<path transform="matrix(1,0,0,-1,948.8675,1165.6555)" d="M0 0C-1.422-1.32-2.583-2.333-3.672-3.419-39.37-38.991-75.106-74.525-110.719-110.183-119.148-118.622-127.696-126.958-135.533-135.981-155.413-158.87-171.843-183.817-180.68-213.107-190.147-244.486-189.546-275.471-175.028-305.353-159.069-338.201-132.708-359.683-99.125-372.696-66.633-385.286-33.181-386.612 .547-379.096 38.205-370.705 70.005-352.228 93.632-321.228 116.55-291.159 125.394-257.204 120.123-219.648 117.002-197.412 108.645-177.181 96.999-158.167 72.21-117.697 47.431-77.219 22.632-36.754 15.151-24.547 7.62-12.371 0 0M306.355 856.012C328.239 844.736 347.765 830.798 365.349 814.216 401.25 780.363 424.751 739.5 434.74 691.038 439.719 666.882 441.061 642.492 439.826 617.886 438.872 598.882 435.988 580.111 433.531 561.289 430.303 536.555 426.857 511.85 423.477 487.137 420.246 463.519 416.941 439.911 413.741 416.289 410.303 390.916 406.887 365.54 403.582 340.15 401.159 321.542 399.041 302.895 396.594 284.291 390.561 238.427 387.675 192.461 389.949 146.16 391.021 124.322 391.498 102.447 393.059 80.629 394.462 61.021 396.412 41.458 398.835 21.952 402.263-5.648 406.354-33.156 411.579-60.477 427.386-143.121 447.105-224.702 477.814-303.287 505.587-374.357 545.28-438.121 595.493-495.436 603.208-504.243 611.179-512.827 618.982-521.559 619.784-522.457 621.225-523.048 620.861-525.47 615.122-525.2 609.271-525.141 603.462-524.618 561.423-520.832 526.615-501.573 495.746-474.002 468.909-450.032 446.508-422.17 424.77-393.657 380.489-335.576 351.346-270.341 332.255-200.255 320.413-156.782 311.009-112.78 304.507-68.203 298.927-29.944 295.491 8.544 293.32 47.156 290.602 95.514 290.14 143.897 291.55 192.286 292.135 212.375 292.053 232.489 293.519 252.561 295.243 276.176 298.445 299.518 304.857 322.355 305.086 323.174 305.269 324.006 305.481 324.864 304.059 325.244 303.938 324.094 303.614 323.576 280.328 286.295 251.929 253.068 222.065 221.036 184.371 180.606 144.09 142.751 104.901 103.809 98.003 96.955 91.066 90.14 84.133 83.321 80.417 79.666 80.356 79.653 82.831 75.085 97.229 48.507 111.7 21.968 126.055-4.633 148.267-45.796 170.484-86.957 192.549-128.199 208.353-157.741 217.7-189.283 221.038-222.617 225.457-266.748 220.152-309.507 201.841-350.115 176.257-406.853 132.956-444.143 74.341-464.01 42.443-474.82 9.466-478.878-24.1-478.811-59.399-478.74-94.192-474.952-127.93-464.051-174.449-449.023-213.39-423.257-241.619-382.682-259.701-356.693-270.72-327.837-275.363-296.574-283.418-242.344-272.904-191.188-249.335-142.283-233.264-108.939-211.794-79.372-185.824-53.104-142.624-9.409-99.226 34.091-55.91 77.672-55.287 78.299-54.658 78.921-54.034 79.547-49.889 83.711-50.336 82.957-53.183 87.789-73.121 121.638-93.09 155.469-113.035 189.314-166.371 279.824-219.699 370.339-273.035 460.849-274.378 463.127-275.783 465.368-277.399 468.019-285.652 463.496-292.657 457.581-299.102 450.994-315.061 434.682-323.848 414.69-328.46 392.676-332.924 371.367-333.86 349.787-333.026 328.08-332.229 307.313-330.421 286.649-327.352 266.093-327.083 264.291-327.316 262.415-328.158 260.3-331.945 268.403-335.801 276.475-339.508 284.615-353.791 315.974-366.304 347.971-374.205 381.616-379.585 404.521-382.537 427.712-381.361 451.248-379.847 481.554-371.669 509.928-355.182 535.619-315.59 597.316-232.733 592.818-194.292 549.455-181.813 535.379-171.526 519.615-161.205 503.929-130.25 456.883-101.838 408.292-73.829 359.467-38.253 297.453-3.616 234.916 29.989 171.81 30.813 170.263 31.742 168.771 32.941 166.703 37.002 170.88 40.783 174.851 44.65 178.735 73.501 207.708 102.806 236.225 131.82 265.029 191.561 324.337 246.22 387.924 290.313 459.992 310.175 492.455 327.195 526.312 337.816 563.048 348.958 601.584 352.991 640.93 351.008 680.975 348.022 741.28 333.011 798.507 307.508 853.103 307.067 854.046 306.737 855.042 306.355 856.012" fill="#f16723"/>
<path transform="matrix(1,0,0,-1,627.9697,928.6655)" d="M0 0C2.523-5.014 5.132-9.987 7.556-15.049 19.88-40.785 29.893-67.339 35.529-95.399 42.57-130.453 42.386-165.116 29.598-199.047 17.467-231.235-3.755-256.407-30.783-277.043-58.979-298.572-90.69-313.238-124.144-324.417-147.195-332.12-170.79-337.621-194.765-341.526-195.622-341.665-196.521-341.544-197.756-341.544-197.168-339.012-194.9-338.382-193.344-337.194-137.319-294.389-89.813-243.823-53.426-183.209-31.233-146.237-15.128-106.823-6.91-64.348-3.125-44.785-1.363-25.03-1.162-5.122-1.145-3.489-1.159-1.856-1.159-.223-.773-.149-.386-.074 0 0" fill="#f16723"/>
<path transform="matrix(1,0,0,-1,667.3864,309.2567)" d="M0 0C-14.759-10.061-27.724-20.684-39.245-32.955-47.705-41.965-56.391-50.802-63.189-61.236-66.574-66.432-69.517-71.855-71.943-77.55-72.979-79.983-73.837-82.509-73.931-85.207-74.033-88.106-72.871-89.906-69.734-89.852-67.305-89.809-64.874-89.742-62.45-89.585-54.931-89.098-48.059-90.978-41.619-94.858-20.342-107.681-8.885-126.116-10.202-151.299-11.222-170.797-18.157-188.281-30.44-203.539-33.633-207.505-37.224-211.121-41.239-214.261-58.749-227.957-78.476-231.283-99.396-224.952-128.389-216.179-148.859-198.136-156.277-167.784-161.512-146.369-157.125-126.18-146.788-107.066-136.972-88.916-123.326-73.943-107.747-60.673-77.708-35.085-43.774-16.015-7.318-1.243-5.692-.584-3.982-.122-2.288 .355-1.913 .461-1.445 .24 0 0" fill="#f16723"/>
</g>
</g>
</svg>
